<?xml version="1.0" encoding="UTF-8"?>
<svg xmlns="http://www.w3.org/2000/svg" xmlns:xlink="http://www.w3.org/1999/xlink" viewBox="0 0 366.43 87">
  <defs>
    <style>
      .cls-1 {
        fill: url(#linear-gradient);
      }

      .cls-2 {
        fill: #fff;
      }
    </style>
    <linearGradient id="linear-gradient" x1="67.84" y1="-2301.94" x2="121.6" y2="-2301.94" gradientTransform="translate(0 -2258) scale(1 -1)" gradientUnits="userSpaceOnUse">
      <stop offset=".41" stop-color="#ff8300"/>
      <stop offset=".6" stop-color="#fa9f1f"/>
      <stop offset=".76" stop-color="#f7b334"/>
    </linearGradient>
  </defs>
  <g id="_" data-name="®">
    <path class="cls-2" d="M366.43,19.43c0,2.48-1.97,4.49-4.45,4.49s-4.44-2.01-4.44-4.49,1.96-4.51,4.44-4.51,4.45,2.02,4.45,4.51Zm-.61,0c0-2.14-1.71-3.9-3.84-3.9s-3.84,1.76-3.84,3.9,1.69,3.88,3.84,3.88,3.84-1.74,3.84-3.88Zm-3.25,.65l1.11,1.62h-.71l-1.09-1.58h-.71v1.58h-.64v-4.48h1.69c.99,0,1.43,.69,1.43,1.43s-.32,1.29-1.07,1.44Zm-1.41-2.27v1.72h1.03c.59,0,.83-.43,.83-.85s-.24-.87-.81-.87h-1.04Z"/>
  </g>
  <g id="p">
    <path class="cls-2" d="M335.6,21.9c-4.7-.1-9.3,1.7-12.8,4.8-.2,.2-.5,.3-.8,.1-.3-.1-.4-.4-.4-.7v-1.4c0-1.1-.9-2-2-2h-5.6c-1.1,0-2,.9-2,2v59.7c0,1.1,.9,2,2,2h5.5c1.1,0,2-.9,2-2v-21.5c0-.3,.2-.6,.4-.7,.3-.1,.6-.1,.8,.1,3.5,3.1,8.1,4.7,12.8,4.6,12.5,0,21.6-9.4,21.6-22.4s-9-22.6-21.5-22.6Zm12.1,22.8c0,7.7-5.3,13.1-13,13.1-6.5,0-13.1-4.5-13.1-13.1,0-9.3,6.8-13.5,13.1-13.5,7.6,0,13,5.6,13,13.5Z"/>
  </g>
  <g id="a">
    <path class="cls-2" d="M303.6,22.8h-5.4c-1.1,0-1.9,.9-2,2v1.2c0,.3-.2,.6-.4,.7-.3,.1-.6,.1-.8-.1-3.6-3.1-8.2-4.7-12.9-4.6-12.7,0-21.9,9.5-21.9,22.5s9.4,22.5,21.9,22.5c4.7,0,9.3-1.7,12.9-4.8,.2-.2,.5-.3,.8-.1,.3,.1,.4,.4,.4,.7v1.4c0,1.1,.9,2,2,2h5.4c1.1,0,2-.9,2-2V24.8c-.1-1.1-.9-1.9-2-2Zm-7.5,21.5c0,9.2-6.9,13.4-13.3,13.4-7.4,0-13.1-5.8-13.1-13.4-.3-7,5.2-12.9,12.2-13.1h.9c6.6,0,13.3,4.5,13.3,13.1Z"/>
  </g>
  <g id="e">
    <path class="cls-2" d="M234.2,21.9c-12.8,0-22.1,9.4-22.1,22.4s9.3,22.6,22.1,22.6c8.4,0,15.4-3.7,19.1-10.1,.5-1,.2-2.2-.7-2.7-.1,0-.2-.1-.3-.1-.7-.2-1.3-.5-2-.7-.9-.3-1.7-.6-2.5-.9-.8-.4-1.8-.1-2.3,.6-2.5,3.5-6.7,5.5-11,5.3-6.4,0-11.2-3.6-12.7-9.3-.1-.2,0-.4,.1-.6,.1-.2,.4-.3,.6-.3h31.2c1.1,0,2-.8,2-1.9v-1.9c-.1-13.2-8.9-22.4-21.5-22.4Zm-12.4,17.7c1.4-5.6,6.2-9.1,12.4-9.1s10.5,3.4,11.9,9.1c.1,.4-.2,.8-.6,.9h-23c-.2,0-.5-.1-.6-.3-.1-.1-.2-.3-.1-.6Z"/>
  </g>
  <g id="L">
    <path class="cls-2" d="M199.4,0h5.5c1.1,0,2,.9,2,2v62.1c0,1.1-.9,2-2,2h-5.5c-1.1,0-2-.9-2-2V2c0-1.1,.9-2,2-2Z"/>
  </g>
  <g id="d">
    <path class="cls-2" d="M186.2,0h-5.4c-1.1,0-2,.9-2,2V25.9c0,.4-.4,.8-.8,.8-.2,0-.4-.1-.5-.2-3.1-2.9-7.8-4.5-12.9-4.5-12.6,0-21.7,9.5-21.7,22.5s9.3,22.5,21.8,22.5c4.7,0,9.3-1.6,12.9-4.7,.3-.3,.8-.3,1.1,0,.1,.1,.2,.3,.2,.5v1.3c0,1.1,.9,2,2,2h5.4c1.1,0,2-.9,2-2V2c-.1-1.1-1-2-2.1-2h0Zm-7.5,44.3c0,9.2-6.9,13.4-13.3,13.4-7.4,0-13-5.8-13-13.4s5.5-13.1,13-13.1c6.6,0,13.3,4.5,13.3,13.1Z"/>
  </g>
  <g id="white_squiggle" data-name="white squiggle">
    <path class="cls-2" d="M134.3,30.5c-.3-.4-.7-.9-1-1.3l-.3-.3c-.6-.7-1.3-1.4-2-2h0c-.3-.3-.7-.5-1.2-.5s-1,.2-1.3,.6h0l-3.7,5.2h0c-.2,.3-.3,.6-.3,1,0,.5,.2,.9,.5,1.2h0c.9,.8,1.6,1.7,2.2,2.7,1,1.7,1.7,3.6,1.9,5.6,0,.3,.1,.7,.1,1v.2c0,7.1-5.8,12.9-12.9,12.9h0c-4.2,0-8.1-2-10.5-5.4l-14.5-20.4c-4.2-5.9-11.1-9.4-18.3-9.5-12.4,0-22.4,10.1-22.4,22.5,0,.8,0,1.5,.1,2.2v.1c.1,.8,.2,1.5,.3,2.2v.1c1,4.7,3.4,8.9,7,12.1,.3,.4,.8,.6,1.3,.6,.7,0,1.2-.4,1.5-1h0l3.3-4.7c.2-.3,.4-.6,.4-1s-.2-.8-.5-1.2h0c-2.6-2.5-4.1-6-4-9.6-.1-3.4,1.2-6.6,3.6-9,5-5.1,13.2-5.2,18.3-.3,.6,.6,1.1,1.2,1.5,1.8l14.7,20.7c7.2,10.1,21.2,12.4,31.3,5.2s12.4-21.2,5.2-31.3c-.1-.1-.2-.2-.3-.4Z"/>
  </g>
  <g id="orange_squiggle" data-name="orange squiggle">
    <path class="cls-1" d="M121.6,23.3c0-.9-.7-1.7-1.6-1.7h-.1c-1.7-.2-3.4-.2-5.1-.1l-1,.1c-6.3,.7-12,4.1-15.7,9.3l-14.5,20.6c-2.2,3.4-6,5.5-10,5.6h-.1c-.5,0-.9,.3-1.2,.7h0l-.1,.1-4,5.6c-.6,.7-.4,1.8,.3,2.4,.2,.1,.3,.2,.5,.3h.1c2.2,.2,4.4,.3,6.6,.2,6.3-.7,12.1-4.1,15.8-9.3l14.4-20.4c2.3-3.1,5.8-5.1,9.7-5.4h.1c.6,0,1.2-.3,1.4-.9l4.2-6c.2-.4,.3-.7,.3-1.1Z"/>
  </g>
  <g id="g">
    <path class="cls-2" d="M43.4,22.8h-5.4c-1.1,0-2,.9-2,2v1.5c0,.4-.3,.7-.7,.7-.2,0-.4-.1-.5-.2-3.6-3.2-8.2-4.9-12.9-4.9C9.4,21.9,0,31.7,0,44.6s9.2,22.4,21.9,22.4c5.9,0,11.3-2.4,14.2-6.3-.2,11.7-4.9,17.5-14.3,17.5-4.4,0-8.5-2.2-11-5.9-.5-.8-1.6-1.1-2.5-.7-1.3,.7-3.2,1.7-4.5,2.4-.5,.3-.9,.7-1,1.2s-.1,1,.2,1.4c4,6.5,11.2,10.5,18.8,10.4,15.6,0,23.5-9.4,23.5-28V24.8c0-1.1-.8-1.9-1.9-2ZM22.6,57.7c-7.6,0-13.1-5.4-13.1-13.2-.2-7.1,5.4-13.1,12.5-13.3h.6c6.4,0,13.4,4.2,13.4,13.3,0,8.6-6.9,13.2-13.4,13.2Z"/>
  </g>
</svg>